name Run_30002_IK.mot
datacolumns 164
datarows 4
range 2.32 2.35
endheader
time	         pelvis_tilt	         pelvis_list	     pelvis_rotation	           pelvis_tx	           pelvis_ty	           pelvis_tz	       hip_flexion_r	     hip_adduction_r	      hip_rotation_r	        knee_angle_r	       ankle_angle_r	       hip_flexion_l	     hip_adduction_l	      hip_rotation_l	        knee_angle_l	       ankle_angle_l	    lumbar_extension	      lumbar_bending	     lumbar_rotation	          arm_flex_r	           arm_add_r	           arm_rot_r	        elbow_flex_r	           pro_sup_r	          arm_flex_l	           arm_add_l	           arm_rot_l	        elbow_flex_l	           pro_sup_l	    subtalar_angle_r	         mtp_angle_r	    subtalar_angle_l	         mtp_angle_l	        wrist_flex_r	         wrist_dev_r	        wrist_flex_l	         wrist_dev_l	             LASI_tx	             LASI_ty	             LASI_tz	             RASI_tx	             RASI_ty	             RASI_tz	             LPSI_tx	             LPSI_ty	             LPSI_tz	             RPSI_tx	             RPSI_ty	             RPSI_tz	             RTH1_tx	             RTH1_ty	             RTH1_tz	             RTH2_tx	             RTH2_ty	             RTH2_tz	             RTH3_tx	             RTH3_ty	             RTH3_tz	             LTH1_tx	             LTH1_ty	             LTH1_tz	             LTH2_tx	             LTH2_ty	             LTH2_tz	             LTH3_tx	             LTH3_ty	             LTH3_tz	             RTB1_tx	             RTB1_ty	             RTB1_tz	             RTB2_tx	             RTB2_ty	             RTB2_tz	             RTB3_tx	             RTB3_ty	             RTB3_tz	             LTB1_tx	             LTB1_ty	             LTB1_tz	             LTB2_tx	             LTB2_ty	             LTB2_tz	             LTB3_tx	             LTB3_ty	             LTB3_tz	             RCAL_tx	             RCAL_ty	             RCAL_tz	             RTOE_tx	             RTOE_ty	             RTOE_tz	             RMT5_tx	             RMT5_ty	             RMT5_tz	             LCAL_tx	             LCAL_ty	             LCAL_tz	             LTOE_tx	             LTOE_ty	             LTOE_tz	             LMT5_tx	             LMT5_ty	             LMT5_tz	             LACR_tx	             LACR_ty	             LACR_tz	             RACR_tx	             RACR_ty	             RACR_tz	             CLAV_tx	             CLAV_ty	             CLAV_tz	               C7_tx	               C7_ty	               C7_tz	             RUA1_tx	             RUA1_ty	             RUA1_tz	             RUA2_tx	             RUA2_ty	             RUA2_tz	             RUA3_tx	             RUA3_ty	             RUA3_tz	             RLEL_tx	             RLEL_ty	             RLEL_tz	             RMEL_tx	             RMEL_ty	             RMEL_tz	             LUA1_tx	             LUA1_ty	             LUA1_tz	             LUA2_tx	             LUA2_ty	             LUA2_tz	             LUA3_tx	             LUA3_ty	             LUA3_tz	             LLEL_tx	             LLEL_ty	             LLEL_tz	             LMEL_tx	             LMEL_ty	             LMEL_tz	      RFAsuperior_tx	      RFAsuperior_ty	      RFAsuperior_tz	        RFAradius_tx	        RFAradius_ty	        RFAradius_tz	          RFAulna_tx	          RFAulna_ty	          RFAulna_tz	      LFAsuperior_tx	      LFAsuperior_ty	      LFAsuperior_tz	        LFAradius_tx	        LFAradius_ty	        LFAradius_tz	          LFAulna_tx	          LFAulna_ty	          LFAulna_tz	
2.32	        -11.62642207	         -0.14472587	          2.36434386	          0.96772707	          1.03825548	         -0.34968624	          1.60452571	          3.23569813	         -2.03271741	        -54.20102883	        -14.84156565	         32.73884510	          5.97582425	          1.71137671	        -12.54701475	          3.12973622	         -0.71229078	         -0.39131320	         10.60003229	        -21.34634698	        -21.42589440	         -5.81500576	        118.08450056	        110.79552013	        -46.07771267	         -8.67187797	        -12.50599722	        118.46535497	        104.12056651	          0.00000000	          0.00000000	          0.00000000	          0.00000000	          0.00000000	          0.00000000	          0.00000000	          0.00000000	          0.97640374	          1.07848691	         -0.47479803	          0.99030404	          1.07500932	         -0.22249283	          0.81953963	          1.13725214	         -0.40129912	          0.82732094	          1.13213485	         -0.28873883	          0.90166341	          0.95114895	         -0.17615370	          0.82234665	          0.81725494	         -0.19616749	          0.82902297	          0.66137583	         -0.21259008	          0.93490162	          0.95348575	         -0.53044052	          0.91447239	          0.78906544	         -0.47631543	          1.00595000	          0.67726507	         -0.47357980	          0.71041170	          0.43917855	         -0.28331910	          0.63023666	          0.48586835	         -0.21591330	          0.53110317	          0.37259261	         -0.29216854	          1.11958175	          0.47693441	         -0.40644154	          1.04877131	          0.35504397	         -0.44764794	          1.12419254	          0.26067745	         -0.38571760	          0.37885081	          0.42786852	         -0.27667232	          0.41942121	          0.19899294	         -0.34609157	          0.37771198	          0.21658349	         -0.24994806	          1.02792016	          0.10054336	         -0.34711847	          1.25895610	          0.15429926	         -0.34283755	          1.22808521	          0.07640130	         -0.41712055	          0.93683448	          1.56928445	         -0.50628148	          1.01634135	          1.54728955	         -0.19737471	          1.04244102	          1.51378272	         -0.33542935	          0.91648499	          1.58287457	         -0.34231990	          0.92844105	          1.45446061	         -0.10910328	          0.97719752	          1.39419918	         -0.09435314	          0.92632164	          1.31919715	         -0.03634222	          0.90420245	          1.25711442	         -0.00493392	          0.87559062	          1.23367407	         -0.08795639	          0.80627706	          1.51614715	         -0.52600400	          0.80079393	          1.43567041	         -0.55611911	          0.70726516	          1.40210576	         -0.54809161	          0.66526960	          1.34259199	         -0.55551719	          0.67645011	          1.32195847	         -0.46839334	          0.99737365	          1.21931639	         -0.04882414	          1.10617680	          1.22391021	         -0.19231370	          1.11474063	          1.16958465	         -0.14930578	          0.71392131	          1.27627056	         -0.57063848	          0.89699388	          1.22984229	         -0.53989089	          0.86255922	          1.17283778	         -0.56722812	
2.33	        -11.88782546	         -0.25500336	          2.37398986	          0.96730869	          1.03061054	         -0.34920026	          3.95909242	          2.91018509	         -2.38550207	        -59.58225973	        -13.82650266	         32.83565272	          5.87011969	          1.42869873	        -14.10298476	          2.14226784	         -0.34825855	         -0.40796667	         10.04059273	        -22.24248362	        -20.97756898	         -6.32281327	        115.78870909	        110.93449382	        -45.37061702	         -8.64504643	        -12.49850365	        118.20657337	        103.93007642	          0.00000000	          0.00000000	          0.00000000	          0.00000000	          0.00000000	          0.00000000	          0.00000000	          0.00000000	          0.97642689	          1.07017882	         -0.47329436	          0.99033884	          1.06785913	         -0.22298298	          0.81975355	          1.12982493	         -0.40102162	          0.82727150	          1.12505633	         -0.28853571	          0.90232789	          0.94375520	         -0.17518570	          0.82749983	          0.80847591	         -0.19392344	          0.83891683	          0.65272423	         -0.20978887	          0.93315744	          0.94578710	         -0.53057049	          0.91285858	          0.78180944	         -0.47485925	          1.00457483	          0.67006467	         -0.47243364	          0.71999011	          0.43537291	         -0.28009927	          0.64255812	          0.48662233	         -0.21296051	          0.53681672	          0.37860504	         -0.28748695	          1.11401221	          0.46669498	         -0.40632122	          1.03992301	          0.34679676	         -0.44746129	          1.11312805	          0.25037624	         -0.38614583	          0.38733236	          0.44190791	         -0.27272722	          0.41843763	          0.21081062	         -0.33967020	          0.37692772	          0.23117610	         -0.24454188	          1.01217924	          0.09599813	         -0.34669755	          1.24452435	          0.13843487	         -0.34143061	          1.21077969	          0.06087496	         -0.41545606	          0.93726961	          1.56135726	         -0.50765715	          1.01505739	          1.54023921	         -0.19754795	          1.04194399	          1.50688895	         -0.33574906	          0.91603265	          1.57635850	         -0.34374065	          0.92433604	          1.44869006	         -0.11025274	          0.97207061	          1.38780725	         -0.09431975	          0.91945305	          1.31345980	         -0.03713341	          0.89565395	          1.25244982	         -0.00555468	          0.86855285	          1.22884296	         -0.08887911	          0.80701105	          1.50654297	         -0.52929516	          0.80300170	          1.42545807	         -0.55826020	          0.70988011	          1.39051715	         -0.55097418	          0.66861399	          1.33066726	         -0.55840464	          0.67946579	          1.31061856	         -0.47100746	          0.98852148	          1.21011775	         -0.04587565	          1.10163800	          1.20604053	         -0.18689324	          1.10612752	          1.15279485	         -0.14198840	          0.71805406	          1.26492917	         -0.57263721	          0.90148063	          1.22058548	         -0.54076959	          0.86783768	          1.16317760	         -0.56815249	
2.34	        -12.16109070	         -0.27082509	          2.32708935	          0.96699715	          1.02206644	         -0.34876589	          6.36984996	          2.34803911	         -2.78042688	        -64.79847321	        -12.59192999	         33.00972134	          5.80554707	          0.68410478	        -16.17038049	          0.77824576	          0.07278107	         -0.51894907	          9.46414724	        -23.18378732	        -20.55230747	         -6.82649109	        113.33275555	        110.94415346	        -44.56860031	         -8.72788482	        -12.41367859	        117.81163997	        103.71837494	          0.00000000	          0.00000000	          0.00000000	          0.00000000	          0.00000000	          0.00000000	          0.00000000	          0.00000000	          0.97676725	          1.06094387	         -0.47191481	          0.99033487	          1.05991779	         -0.22338701	          0.82020678	          1.12140054	         -0.40074661	          0.82731011	          1.11713139	         -0.28822368	          0.90284170	          0.93580527	         -0.17444752	          0.83240264	          0.79905572	         -0.19206745	          0.84889793	          0.64368372	         -0.20669947	          0.93201544	          0.93715993	         -0.52978600	          0.91098920	          0.77343169	         -0.47384269	          1.00273071	          0.66160262	         -0.47245063	          0.73080755	          0.43072608	         -0.27587677	          0.65599648	          0.48655401	         -0.20955465	          0.54466772	          0.38357352	         -0.28264351	          1.10789769	          0.45490825	         -0.40704508	          1.02996693	          0.33710039	         -0.44705595	          1.10033415	          0.23873254	         -0.38585232	          0.39761784	          0.45421859	         -0.26942715	          0.42095757	          0.22112112	         -0.33259141	          0.37955280	          0.24448442	         -0.23842155	          0.99330848	          0.09403034	         -0.34478367	          1.22719219	          0.11845511	         -0.33887254	          1.18924447	          0.04598629	         -0.41521383	          0.93763046	          1.55244121	         -0.50902689	          1.01334383	          1.53248580	         -0.19761691	          1.04137371	          1.49917461	         -0.33603534	          0.91532197	          1.56864569	         -0.34520352	          0.91980653	          1.44207083	         -0.11147845	          0.96660052	          1.38043744	         -0.09454228	          0.91207959	          1.30695546	         -0.03804051	          0.88658921	          1.24721332	         -0.00617302	          0.86085227	          1.22319021	         -0.08970771	          0.80789509	          1.49576956	         -0.53288793	          0.80561279	          1.41403200	         -0.56083796	          0.71298517	          1.37747781	         -0.55458298	          0.67254179	          1.31728082	         -0.56217494	          0.68272310	          1.29792106	         -0.47446047	          0.97887993	          1.20033903	         -0.04260920	          1.09587387	          1.18690213	         -0.18049339	          1.09621757	          1.13488103	         -0.13396770	          0.72287209	          1.25199825	         -0.57551590	          0.90651505	          1.20990222	         -0.54176699	          0.87377334	          1.15204038	         -0.56927177	
2.35	        -12.42426414	         -0.10179999	          2.30191514	          0.96647709	          1.01294446	         -0.34843168	          8.83976866	          1.50435698	         -3.14287303	        -69.85005155	        -11.06601231	         33.44188481	          5.99384531	         -0.30856010	        -19.11205828	          0.52243260	          0.46634321	         -0.84512596	          8.76723182	        -24.04523217	        -20.12728281	         -7.28464782	        110.63722779	        110.94870443	        -43.62655018	         -8.90428699	        -12.28578045	        117.24891865	        103.50480698	          0.00000000	          0.00000000	          0.00000000	          0.00000000	          0.00000000	          0.00000000	          0.00000000	          0.00000000	          0.97692354	          1.05136389	         -0.47069236	          0.99029093	          1.05128047	         -0.22324030	          0.82039292	          1.11253867	         -0.40052350	          0.82715166	          1.10849175	         -0.28779778	          0.90339661	          0.92727083	         -0.17433219	          0.83736478	          0.78897783	         -0.19089334	          0.85912770	          0.63417330	         -0.20356099	          0.93181684	          0.92803404	         -0.52778540	          0.90897252	          0.76439549	         -0.47357546	          1.00059123	          0.65240091	         -0.47323501	          0.74277670	          0.42523976	         -0.27070235	          0.67037037	          0.48577010	         -0.20581743	          0.55468073	          0.38737971	         -0.27790235	          1.10228822	          0.44310400	         -0.40695318	          1.02012326	          0.32757281	         -0.44510957	          1.08598523	          0.22739261	         -0.38245744	          0.40932087	          0.46464001	         -0.26669780	          0.42700436	          0.22979748	         -0.32508563	          0.38559588	          0.25617968	         -0.23160822	          0.97105770	          0.09407203	         -0.34042902	          1.20657273	          0.09853346	         -0.33457414	          1.16401074	          0.03656875	         -0.41626673	          0.93803983	          1.54260009	         -0.51061320	          1.01114187	          1.52408633	         -0.19767907	          1.04083998	          1.49072271	         -0.33615050	          0.91429824	          1.55967011	         -0.34675421	          0.91484429	          1.43465570	         -0.11289999	          0.96084269	          1.37228395	         -0.09498183	          0.90432402	          1.29984635	         -0.03914661	          0.87711047	          1.24151104	         -0.00684036	          0.85255050	          1.21677334	         -0.09056377	          0.80894628	          1.48399122	         -0.53672566	          0.80868974	          1.40152197	         -0.56385379	          0.71665682	          1.36315541	         -0.55885145	          0.67712500	          1.30262309	         -0.56669618	          0.68633991	          1.28398648	         -0.47868691	          0.96850167	          1.18996996	         -0.03928808	          1.08889126	          1.16653003	         -0.17321888	          1.08492742	          1.11602709	         -0.12514090	          0.72844865	          1.23766649	         -0.57916016	          0.91209928	          1.19779876	         -0.54282996	          0.88036751	          1.13944632	         -0.57052368	
